<?xml version="1.0" encoding="UTF-8" standalone="no"?>
<svg
   xmlns:dc="http://purl.org/dc/elements/1.1/"
   xmlns:cc="http://creativecommons.org/ns#"
   xmlns:rdf="http://www.w3.org/1999/02/22-rdf-syntax-ns#"
   xmlns:svg="http://www.w3.org/2000/svg"
   xmlns="http://www.w3.org/2000/svg"
   xmlns:sodipodi="http://sodipodi.sourceforge.net/DTD/sodipodi-0.dtd"
   xmlns:inkscape="http://www.inkscape.org/namespaces/inkscape"
   inkscape:version="1.0beta1 (fe3e306, 2019-09-17)"
   height="90"
   width="90"
   sodipodi:docname="noun_Video_1534794.svg"
   id="svg839"
   xml:space="preserve"
   viewBox="1 -1 90 90"
   y="0px"
   x="0px"
   version="1.1">
  <metadata
     id="metadata845">
    <rdf:RDF>
      <cc:Work
         rdf:about="">
        <dc:format>image/svg+xml</dc:format>
        <dc:type
           rdf:resource="http://purl.org/dc/dcmitype/StillImage" />
        <dc:title></dc:title>
      </cc:Work>
    </rdf:RDF>
  </metadata>
  <defs
     id="defs843" />
  <sodipodi:namedview
     inkscape:current-layer="svg839"
     inkscape:window-maximized="0"
     inkscape:window-y="23"
     inkscape:window-x="0"
     inkscape:cy="38.266874"
     inkscape:cx="34.171573"
     inkscape:zoom="5.6568542"
     fit-margin-bottom="0"
     fit-margin-right="0"
     fit-margin-left="0"
     fit-margin-top="0"
     showgrid="false"
     id="namedview841"
     inkscape:window-height="907"
     inkscape:window-width="1600"
     inkscape:pageshadow="2"
     inkscape:pageopacity="0"
     guidetolerance="10"
     gridtolerance="10"
     objecttolerance="10"
     borderopacity="1"
     inkscape:document-rotation="0"
     bordercolor="#666666"
     pagecolor="#ffffff" />
  <path
     inkscape:connector-curvature="0"
     id="path833"
     d="m 86.45,20.9 c -1.9,-1 -4.3,-1 -6.1,0.1 l -15.2,8 v -9.7 c 0,-1.9 -1.4,-3.3 -3.3,-3.3 H 5.25 c -1.9,0 -3.3,1.4 -3.3,3.3 v 49.4 c 0,1.9 1.4,3.3 3.3,3.3 h 56.7 c 1.9,0 3.3,-1.4 3.3,-3.3 v -9.9 l 15.1,7.8 c 0.9,0.6 2,0.9 3.3,0.9 0.8,0 1.9,-0.1 2.9,-0.7 2.1,-1.1 3.5,-3.3 3.5,-5.8 V 26.7 c -0.1,-2.5 -1.5,-4.8 -3.6,-5.8 z m -3.3,6 v 33.9 l -18.2,-9.4 v -15 z M 58.65,22.5 V 65.4 H 8.45 V 22.5 Z" />
</svg>
